<svg xmlns="http://www.w3.org/2000/svg" xmlns:xlink="http://www.w3.org/1999/xlink" width="194" height="80" viewBox="0 0 194 80">
  <defs>
    <clipPath id="clip-path">
      <rect id="Retângulo_1" data-name="Retângulo 1" width="194" height="80" transform="translate(0 0)" fill="none"/>
    </clipPath>
  </defs>
  <g id="Grupo_1" data-name="Grupo 1" clip-path="url(#clip-path)">
    <path id="Caminho_1" data-name="Caminho 1" d="M115.015,8.706c-3.642,0-7.194,1.855-8.469,5.378h-.1V0L103.465,1V33.976h2.746V29.313h.1a9.141,9.141,0,0,0,8.707,5.379C122.446,34.692,126,28.644,126,21.7S122.446,8.706,115.015,8.706m0,23.461c-6.342,0-8.564-5.377-8.564-10.47s2.223-10.47,8.564-10.47c5.681,0,8,5.378,8,10.47s-2.318,10.47-8,10.47M13.271,0H0V33.975H3.217V19.416H13.271c6.058,0,10.034-3.57,10.034-9.709S19.329,0,13.271,0m-.709,16.655H3.217V2.76h9.345c4.448,0,7.524,2.284,7.524,6.947s-3.076,6.947-7.524,6.947M155.231,33.975h2.981V0L155.231,1Zm8.944,0h2.981V0L164.176,1ZM182.569,8.707c-7.4,0-11.434,5.949-11.434,12.993s4.03,12.99,11.434,12.99S194,28.741,194,21.7,189.973,8.707,182.569,8.707m0,23.461c-5.669,0-8.48-5.235-8.48-10.468s2.811-10.468,8.48-10.468,8.482,5.234,8.482,10.468-2.814,10.468-8.482,10.468M88.064,8.707c-7.4,0-11.432,5.949-11.432,12.993s4.03,12.99,11.432,12.99S99.5,28.741,99.5,21.7,95.469,8.707,88.064,8.707m0,23.461c-5.668,0-8.478-5.235-8.478-10.468s2.81-10.468,8.478-10.468,8.482,5.234,8.482,10.468-2.814,10.468-8.482,10.468M35.33,8.707c-7.4,0-11.433,5.949-11.433,12.993s4.03,12.99,11.433,12.99S46.762,28.741,46.762,21.7,42.734,8.707,35.33,8.707m0,23.461c-5.668,0-8.479-5.235-8.479-10.468s2.811-10.468,8.479-10.468,8.481,5.234,8.481,10.468S41,32.168,35.33,32.168M69.648,9.421V0L66.665,1V33.975h2.983V11.943h6.964l1.013-2.522Zm70.777-.714c-7.8,0-11.082,6.518-11.082,12.99,0,7,3.284,12.993,11.082,12.993,5.977,0,9.191-3.03,10.559-8.258h-3.009c-1.04,3.414-3.393,5.735-7.549,5.735-5.755,0-8.037-5.283-8.083-9.661H151.22c.239-6.9-2.9-13.8-10.8-13.8m-8.083,11.276c.474-4.472,3.186-8.756,8.083-8.756,4.852,0,7.657,4.236,7.8,8.756ZM63.022,9.417c-4.192-.025-7.977,1.963-9.435,5.763h-.1V9.421H50.743V33.975h2.985V20.889a9.116,9.116,0,0,1,9.365-8.958h.586V9.416h-.656Z" fill="#ffffff"/>
    <path id="Caminho_2" data-name="Caminho 2" d="M115.011,45.309a9.134,9.134,0,0,0-8.706,5.373h-.1V46.021h-2.744V80l2.981-1V65.91h.094c1.279,3.519,4.829,5.376,8.471,5.376,7.43,0,10.98-6.041,10.98-12.991s-3.55-12.986-10.98-12.986m0,23.455c-6.339,0-8.564-5.373-8.564-10.47,0-5.564,1.988-10.463,8.564-10.463,5.678,0,8,5.374,8,10.463s-2.319,10.47-8,10.47M88.065,45.309c-7.4,0-11.433,5.948-11.433,12.991s4.03,12.99,11.433,12.99S99.5,65.341,99.5,58.3,95.469,45.309,88.065,45.309m0,23.459c-5.669,0-8.479-5.235-8.479-10.468s2.81-10.468,8.479-10.468,8.482,5.234,8.482,10.468-2.814,10.468-8.482,10.468M39.914,57.189,36,56.3c-2-.516-4.982-1.457-4.982-4.092,0-3.148,3.074-4.184,5.682-4.184,3.354,0,6.149,1.647,6.287,5.314h2.935c-.187-5.265-4.006-7.8-8.8-7.8-4.24,0-9.036,1.882-9.036,6.816,0,4.137,2.885,5.454,6.706,6.486l3.773.848c2.653.658,5.264,1.6,5.264,4.419,0,3.384-3.822,4.608-6.569,4.608-3.913,0-6.847-2.069-7.08-6.064H27.246c.466,5.921,4.284,8.554,9.875,8.554,4.471,0,9.641-2.023,9.641-7.287,0-4.231-3.494-6.206-6.848-6.722M62.48,45.251c-3.454,0-7.575,1.994-8.663,4.943h-.094V36.707l-2.98.994v32.95h2.98V56.183a8.412,8.412,0,0,1,8.52-8.412c4.823,0,7.422,3.551,7.422,7.783v15.1h2.981V55.082c0-5.849-3.311-9.831-10.165-9.831" fill="#85898a"/>
  </g>
</svg>